# xmcd CD database file
#
# Track frame offsets:
#	150
#	37472
#	68462
#	91120
#	114585
#	140690
#	158287
#	197915
#	231332
#	268560
#	303647
#
# Disc length: 4312 seconds
#
# Revision: 0
# Processed by: cddbd v1.5.2PL0 Copyright (c) Steve Scherf et al.
# Submitted via: CDex 1.51
#
DISCID=9610d60b
DTITLE=Pete Pederson - Groovin' High
DYEAR=1996
DGENRE=Jazz
TTITLE0=Jitterbug Waltz
TTITLE1=My Funny Valentine
TTITLE2=Have You Met Miss Jones
TTITLE3=I Mean You
TTITLE4=Her's That Rainy Day
TTITLE5=Groovin' High
TTITLE6=Sophisticated Lady
TTITLE7=Joy Spring
TTITLE8=Body and Soul
TTITLE9=I'll Remember April
TTITLE10=How Insensitive
EXTD=YEAR: 1996
EXTT0=
EXTT1=
EXTT2=
EXTT3=
EXTT4=
EXTT5=
EXTT6=
EXTT7=
EXTT8=
EXTT9=
EXTT10=
PLAYORDER=
